<svg id="SVGID" width="100%" xmlns="http://www.w3.org/2000/svg" style="max-width: 2306.80078125px;" viewBox="0 0 2306.80078125 1513" role="graphics-document document" aria-roledescription="classDiagram"><style>#SVGID{font-family:"trebuchet ms",verdana,arial,sans-serif;font-size:16px;fill:#000000;}#SVGID .error-icon{fill:#552222;}#SVGID .error-text{fill:#552222;stroke:#552222;}#SVGID .edge-thickness-normal{stroke-width:2px;}#SVGID .edge-thickness-thick{stroke-width:3.5px;}#SVGID .edge-pattern-solid{stroke-dasharray:0;}#SVGID .edge-pattern-dashed{stroke-dasharray:3;}#SVGID .edge-pattern-dotted{stroke-dasharray:2;}#SVGID .marker{fill:#666;stroke:#666;}#SVGID .marker.cross{stroke:#666;}#SVGID svg{font-family:"trebuchet ms",verdana,arial,sans-serif;font-size:16px;}#SVGID g.classGroup text{fill:#999;stroke:none;font-family:"trebuchet ms",verdana,arial,sans-serif;font-size:10px;}#SVGID g.classGroup text .title{font-weight:bolder;}#SVGID .nodeLabel,#SVGID .edgeLabel{color:#111111;}#SVGID .edgeLabel .label rect{fill:#eee;}#SVGID .label text{fill:#111111;}#SVGID .edgeLabel .label span{background:#eee;}#SVGID .classTitle{font-weight:bolder;}#SVGID .node rect,#SVGID .node circle,#SVGID .node ellipse,#SVGID .node polygon,#SVGID .node path{fill:#eee;stroke:#999;stroke-width:1px;}#SVGID .divider{stroke:#999;stroke-width:1;}#SVGID g.clickable{cursor:pointer;}#SVGID g.classGroup rect{fill:#eee;stroke:#999;}#SVGID g.classGroup line{stroke:#999;stroke-width:1;}#SVGID .classLabel .box{stroke:none;stroke-width:0;fill:#eee;opacity:0.5;}#SVGID .classLabel .label{fill:#999;font-size:10px;}#SVGID .relation{stroke:#666;stroke-width:1;fill:none;}#SVGID .dashed-line{stroke-dasharray:3;}#SVGID .dotted-line{stroke-dasharray:1 2;}#SVGID #compositionStart,#SVGID .composition{fill:#666!important;stroke:#666!important;stroke-width:1;}#SVGID #compositionEnd,#SVGID .composition{fill:#666!important;stroke:#666!important;stroke-width:1;}#SVGID #dependencyStart,#SVGID .dependency{fill:#666!important;stroke:#666!important;stroke-width:1;}#SVGID #dependencyStart,#SVGID .dependency{fill:#666!important;stroke:#666!important;stroke-width:1;}#SVGID #extensionStart,#SVGID .extension{fill:transparent!important;stroke:#666!important;stroke-width:1;}#SVGID #extensionEnd,#SVGID .extension{fill:transparent!important;stroke:#666!important;stroke-width:1;}#SVGID #aggregationStart,#SVGID .aggregation{fill:transparent!important;stroke:#666!important;stroke-width:1;}#SVGID #aggregationEnd,#SVGID .aggregation{fill:transparent!important;stroke:#666!important;stroke-width:1;}#SVGID #lollipopStart,#SVGID .lollipop{fill:#eee!important;stroke:#666!important;stroke-width:1;}#SVGID #lollipopEnd,#SVGID .lollipop{fill:#eee!important;stroke:#666!important;stroke-width:1;}#SVGID .edgeTerminals{font-size:11px;line-height:initial;}#SVGID .classTitleText{text-anchor:middle;font-size:18px;fill:#000000;}#SVGID :root{--mermaid-font-family:"trebuchet ms",verdana,arial,sans-serif;}</style><g><defs><marker id="SVGID_classDiagram-aggregationStart" class="marker aggregation classDiagram" refX="18" refY="7" markerWidth="190" markerHeight="240" orient="auto"><path d="M 18,7 L9,13 L1,7 L9,1 Z"></path></marker></defs><defs><marker id="SVGID_classDiagram-aggregationEnd" class="marker aggregation classDiagram" refX="1" refY="7" markerWidth="20" markerHeight="28" orient="auto"><path d="M 18,7 L9,13 L1,7 L9,1 Z"></path></marker></defs><defs><marker id="SVGID_classDiagram-extensionStart" class="marker extension classDiagram" refX="18" refY="7" markerWidth="190" markerHeight="240" orient="auto"><path d="M 1,7 L18,13 V 1 Z"></path></marker></defs><defs><marker id="SVGID_classDiagram-extensionEnd" class="marker extension classDiagram" refX="1" refY="7" markerWidth="20" markerHeight="28" orient="auto"><path d="M 1,1 V 13 L18,7 Z"></path></marker></defs><defs><marker id="SVGID_classDiagram-compositionStart" class="marker composition classDiagram" refX="18" refY="7" markerWidth="190" markerHeight="240" orient="auto"><path d="M 18,7 L9,13 L1,7 L9,1 Z"></path></marker></defs><defs><marker id="SVGID_classDiagram-compositionEnd" class="marker composition classDiagram" refX="1" refY="7" markerWidth="20" markerHeight="28" orient="auto"><path d="M 18,7 L9,13 L1,7 L9,1 Z"></path></marker></defs><defs><marker id="SVGID_classDiagram-dependencyStart" class="marker dependency classDiagram" refX="6" refY="7" markerWidth="190" markerHeight="240" orient="auto"><path d="M 5,7 L9,13 L1,7 L9,1 Z"></path></marker></defs><defs><marker id="SVGID_classDiagram-dependencyEnd" class="marker dependency classDiagram" refX="13" refY="7" markerWidth="20" markerHeight="28" orient="auto"><path d="M 18,7 L9,13 L14,7 L9,1 Z"></path></marker></defs><defs><marker id="SVGID_classDiagram-lollipopStart" class="marker lollipop classDiagram" refX="13" refY="7" markerWidth="190" markerHeight="240" orient="auto"><circle stroke="black" fill="transparent" cx="7" cy="7" r="6"></circle></marker></defs><defs><marker id="SVGID_classDiagram-lollipopEnd" class="marker lollipop classDiagram" refX="1" refY="7" markerWidth="190" markerHeight="240" orient="auto"><circle stroke="black" fill="transparent" cx="7" cy="7" r="6"></circle></marker></defs><g class="root"><g class="clusters"></g><g class="edgePaths"><path d="M1260.967,163.935L1065.722,191.696C870.477,219.456,479.986,274.978,288.34,324.752C96.693,374.526,103.89,418.552,107.489,440.565L111.087,462.579" id="id_User_Authentication_1" class="  edge-pattern-solid relation" style="fill:none" marker-end="url(#SVGID_classDiagram-dependencyEnd)"></path><path d="M1260.967,168.517L1123.767,195.514C986.568,222.511,712.169,276.506,574.969,308.253C437.77,340,437.77,349.5,437.77,354.25L437.77,359" id="id_User_Profile_2" class="  edge-pattern-solid relation" style="fill:none" marker-end="url(#SVGID_classDiagram-dependencyEnd)"></path><path d="M1428.842,190.69L1479.395,213.991C1529.948,237.293,1631.054,283.897,1681.607,344.615C1732.16,405.333,1732.16,480.167,1732.16,555C1732.16,629.833,1732.16,704.667,1734.848,747.152C1737.536,789.638,1742.912,799.776,1745.601,804.844L1748.289,809.913" id="id_User_Task_3" class="  edge-pattern-solid relation" style="fill:none" marker-end="url(#SVGID_classDiagram-dependencyEnd)"></path><path d="M1751.1,1109.047L1698.381,1140.456C1645.663,1171.865,1540.226,1234.682,1487.507,1272.758C1434.789,1310.833,1434.789,1324.167,1434.789,1330.833L1434.789,1337.5" id="id_Task_TaskCategory_4" class="  edge-pattern-solid relation" style="fill:none" marker-end="url(#SVGID_classDiagram-dependencyEnd)"></path><path d="M1987.92,894.231L2003.614,875.109C2019.309,855.987,2050.697,817.744,2066.392,761.205C2082.086,704.667,2082.086,629.833,2082.086,555C2082.086,480.167,2082.086,405.333,1974.184,341.789C1866.282,278.246,1650.477,225.991,1542.575,199.864L1434.673,173.737" id="id_Task_User_5" class="  edge-pattern-solid relation" style="fill:none" marker-end="url(#SVGID_classDiagram-dependencyEnd)"></path><path d="M180.394,452.591L191.164,432.242C201.933,411.894,223.471,371.197,403.567,323.369C583.662,275.541,922.314,220.581,1091.641,193.102L1260.967,165.622" id="id_Authentication_User_6" class="  edge-pattern-solid relation" style="fill:none" marker-start="url(#SVGID_classDiagram-aggregationStart)"></path><path d="M1260.967,176.884L1174.606,202.487C1088.245,228.089,915.523,279.295,829.162,323.064C742.801,366.833,742.801,403.167,742.801,421.333L742.801,439.5" id="id_User_Search_7" class="  edge-pattern-solid relation" style="fill:none" marker-end="url(#SVGID_classDiagram-dependencyEnd)"></path><path d="M1428.842,195.507L1472.248,218.006C1515.655,240.505,1602.468,285.502,1645.875,345.418C1689.281,405.333,1689.281,480.167,1689.281,555C1689.281,629.833,1689.281,704.667,1689.281,785.25C1689.281,865.833,1689.281,952.167,1689.281,1038.5C1689.281,1124.833,1689.281,1211.167,1692.019,1259.211C1694.757,1307.256,1700.232,1317.012,1702.97,1321.89L1705.708,1326.768" id="id_User_Review_8" class="  edge-pattern-solid relation" style="fill:none" marker-end="url(#SVGID_classDiagram-dependencyEnd)"></path><path d="M1836.19,1280.832L1835.808,1283.61C1835.426,1286.388,1834.662,1291.944,1830.635,1300.472C1826.608,1309,1819.318,1320.5,1815.673,1326.25L1812.028,1332" id="id_Task_Review_9" class="  edge-pattern-solid relation" style="fill:none" marker-start="url(#SVGID_classDiagram-aggregationStart)"></path><path d="M1986.363,1263L1989.356,1268.75C1992.349,1274.5,1998.335,1286,2011.926,1300.689C2025.517,1315.377,2046.713,1333.254,2057.311,1342.193L2067.909,1351.132" id="id_Task_MatchingAlgorithm_10" class="  edge-pattern-solid relation" style="fill:none" marker-end="url(#SVGID_classDiagram-dependencyEnd)"></path><path d="M1260.967,207.201L1229.719,227.751C1198.471,248.301,1135.976,289.4,1104.728,330.033C1073.48,370.667,1073.48,410.833,1073.48,430.917L1073.48,451" id="id_User_Messaging_11" class="  edge-pattern-solid relation" style="fill:none" marker-end="url(#SVGID_classDiagram-dependencyEnd)"></path><path d="M2147.785,1355L2147.785,1345.417C2147.785,1335.833,2147.785,1316.667,2147.785,1263.917C2147.785,1211.167,2147.785,1124.833,2147.785,1038.5C2147.785,952.167,2147.785,865.833,2147.785,785.25C2147.785,704.667,2147.785,629.833,2147.785,555C2147.785,480.167,2147.785,405.333,2028.937,341.494C1910.09,277.655,1672.394,224.809,1553.547,198.386L1434.699,171.964" id="id_MatchingAlgorithm_User_12" class="  edge-pattern-solid relation" style="fill:none" marker-end="url(#SVGID_classDiagram-dependencyEnd)"></path><path d="M1428.842,268.607L1436.267,278.922C1443.693,289.238,1458.544,309.869,1465.969,334.518C1473.395,359.167,1473.395,387.833,1473.395,402.167L1473.395,416.5" id="id_User_Notification_13" class="  edge-pattern-solid relation" style="fill:none" marker-end="url(#SVGID_classDiagram-dependencyEnd)"></path><path d="M1428.842,179.171L1506.756,204.393C1584.671,229.614,1740.499,280.057,1818.414,319.612C1896.328,359.167,1896.328,387.833,1896.328,402.167L1896.328,416.5" id="id_User_TaskerProfile_14" class="  edge-pattern-solid relation" style="fill:none" marker-end="url(#SVGID_classDiagram-dependencyEnd)"></path><path d="M1896.328,687.5L1896.328,702.833C1896.328,718.167,1896.328,748.833,1895.836,768.922C1895.343,789.011,1894.359,798.521,1893.866,803.277L1893.374,808.032" id="id_TaskerProfile_Task_15" class="  edge-pattern-solid relation" style="fill:none" marker-end="url(#SVGID_classDiagram-dependencyEnd)"></path></g><g class="edgeLabels"><g class="edgeLabel" transform="translate(89.49609375, 330.5)"><g class="label" transform="translate(-26.125, -9.5)"><rect rx="0" ry="0" width="52.29391860961914" height="17.703994750976562"></rect><text style=""><tspan xml:space="preserve" dy="1em" x="0" class="row">utilizes</tspan></text></g></g><g class="edgeTerminals" transform="translate(1241.529520163258, 151.5474572522857)"><g class="inner" transform="translate(-2.890625, -6)"><text style=""><tspan xml:space="preserve" dy="1em" x="0" class="row">1</tspan></text></g></g><g class="edgeTerminals" transform="translate(119.03532371180832, 443.8092988970547)"><g class="inner" transform="translate(-2.890625, -6)"></g><text style=""><tspan xml:space="preserve" dy="1em" x="0" class="row">1</tspan></text></g><g class="edgeLabel" transform="translate(437.76953125, 330.5)"><g class="label" transform="translate(-26.671875, -9.5)"><rect rx="0" ry="0" width="53.386775970458984" height="17.703994750976562"></rect><text style=""><tspan xml:space="preserve" dy="1em" x="0" class="row">creates</tspan></text></g></g><g class="edgeTerminals" transform="translate(1240.8999954886833, 157.17764275166374)"><g class="inner" transform="translate(-2.890625, -6)"><text style=""><tspan xml:space="preserve" dy="1em" x="0" class="row">1</tspan></text></g></g><g class="edgeTerminals" transform="translate(448.0133177490696, 342.9144128724211)"><g class="inner" transform="translate(-2.890625, -6)"></g><text style=""><tspan xml:space="preserve" dy="1em" x="0" class="row">1</tspan></text></g><g class="edgeLabel" transform="translate(1732.16015625, 555)"><g class="label" transform="translate(-18.66015625, -9.5)"><rect rx="0" ry="0" width="37.37667465209961" height="17.703994750976562"></rect><text style=""><tspan xml:space="preserve" dy="1em" x="0" class="row">posts</tspan></text></g></g><g class="edgeTerminals" transform="translate(1438.4556251653198, 211.63791273444)"><g class="inner" transform="translate(-2.890625, -6)"><text style=""><tspan xml:space="preserve" dy="1em" x="0" class="row">1</tspan></text></g></g><g class="edgeTerminals" transform="translate(1751.1526666618392, 787.7259617029741)"><g class="inner" transform="translate(-8.9453125, -6)"></g><text style=""><tspan xml:space="preserve" dy="1em" x="0" class="row">0..*</tspan></text></g><g class="edgeLabel" transform="translate(1434.7890625, 1297.5)"><g class="label" transform="translate(-52.12890625, -9.5)"><rect rx="0" ry="0" width="104.25845336914062" height="17.703994750976562"></rect><text style=""><tspan xml:space="preserve" dy="1em" x="0" class="row">categorized as</tspan></text></g></g><g class="edgeTerminals" transform="translate(1728.3881384953063, 1105.1177177337754)"><g class="inner" transform="translate(-2.890625, -6)"><text style=""><tspan xml:space="preserve" dy="1em" x="0" class="row">1</tspan></text></g></g><g class="edgeTerminals" transform="translate(1444.78906125, 1320.9999989285714)"><g class="inner" transform="translate(-8.9453125, -6)"></g><text style=""><tspan xml:space="preserve" dy="1em" x="0" class="row">0..*</tspan></text></g><g class="edgeLabel" transform="translate(2082.0859375, 555)"><g class="label" transform="translate(-40.25, -9.5)"><rect rx="0" ry="0" width="80.29244232177734" height="17.703994750976562"></rect><text style=""><tspan xml:space="preserve" dy="1em" x="0" class="row">assigned to</tspan></text></g></g><g class="edgeTerminals" transform="translate(2010.6171496901275, 890.2199150068994)"><g class="inner" transform="translate(-2.890625, -6)"><text style=""><tspan xml:space="preserve" dy="1em" x="0" class="row">1</tspan></text></g></g><g class="edgeTerminals" transform="translate(1437.3202247942088, 186.02160732855208)"><g class="inner" transform="translate(-9.8125, -6)"></g><text style=""><tspan xml:space="preserve" dy="1em" x="0" class="row">0..1</tspan></text></g><g class="edgeLabel" transform="translate(245.009765625, 330.5)"><g class="label" transform="translate(-27.2734375, -9.5)"><rect rx="0" ry="0" width="55.360103607177734" height="17.703994750976562"></rect><text style=""><tspan xml:space="preserve" dy="1em" x="0" class="row">verifies</tspan></text></g></g><g class="edgeTerminals" transform="translate(193.41832355848135, 460.0491559537377)"><g class="inner" transform="translate(-2.890625, -6)"><text style=""><tspan xml:space="preserve" dy="1em" x="0" class="row">1</tspan></text></g></g><g class="edgeTerminals" transform="translate(1236.2899064833368, 148.6191545844449)"><g class="inner" transform="translate(-9.8125, -6)"></g><text style=""><tspan xml:space="preserve" dy="1em" x="0" class="row">0..1</tspan></text></g><g class="edgeLabel" transform="translate(742.80078125, 330.5)"><g class="label" transform="translate(-32.4296875, -9.5)"><rect rx="0" ry="0" width="64.89286041259766" height="17.703994750976562"></rect><text style=""><tspan xml:space="preserve" dy="1em" x="0" class="row">performs</tspan></text></g></g><g class="edgeTerminals" transform="translate(1239.925084094421, 167.47692068608168)"><g class="inner" transform="translate(-2.890625, -6)"><text style=""><tspan xml:space="preserve" dy="1em" x="0" class="row">1</tspan></text></g></g><g class="edgeTerminals" transform="translate(752.800780625, 422.99999946428574)"><g class="inner" transform="translate(-8.9453125, -6)"></g><text style=""><tspan xml:space="preserve" dy="1em" x="0" class="row">0..*</tspan></text></g><g class="edgeLabel" transform="translate(1689.28125, 779.5)"><g class="label" transform="translate(-22.87890625, -9.5)"><rect rx="0" ry="0" width="46.578399658203125" height="17.703994750976562"></rect><text style=""><tspan xml:space="preserve" dy="1em" x="0" class="row">writes</tspan></text></g></g><g class="edgeTerminals" transform="translate(1437.4759628330785, 216.87767013589598)"><g class="inner" transform="translate(-2.890625, -6)"><text style=""><tspan xml:space="preserve" dy="1em" x="0" class="row">1</tspan></text></g></g><g class="edgeTerminals" transform="translate(1708.160033981333, 1304.3977644523475)"><g class="inner" transform="translate(-8.9453125, -6)"></g><text style=""><tspan xml:space="preserve" dy="1em" x="0" class="row">0..*</tspan></text></g><g class="edgeLabel" transform="translate(1833.8984375, 1297.5)"><g class="label" transform="translate(-29.859375, -9.5)"><rect rx="0" ry="0" width="59.7564697265625" height="17.703994750976562"></rect><text style=""><tspan xml:space="preserve" dy="1em" x="0" class="row">receives</tspan></text></g></g><g class="edgeTerminals" transform="translate(1821.3673716739274, 1278.2499208215631)"><g class="inner" transform="translate(-2.890625, -6)"><text style=""><tspan xml:space="preserve" dy="1em" x="0" class="row">1</tspan></text></g></g><g class="edgeTerminals" transform="translate(1829.0665353380764, 1320.250771549187)"><g class="inner" transform="translate(-8.9453125, -6)"></g><text style=""><tspan xml:space="preserve" dy="1em" x="0" class="row">0..*</tspan></text></g><g class="edgeLabel" transform="translate(2004.3203125, 1297.5)"><g class="label" transform="translate(-15.47265625, -9.5)"><rect rx="0" ry="0" width="31.006980895996094" height="17.703994750976562"></rect><text style=""><tspan xml:space="preserve" dy="1em" x="0" class="row">uses</tspan></text></g></g><g class="edgeTerminals" transform="translate(1981.1372515091768, 1285.448661186212)"><g class="inner" transform="translate(-2.890625, -6)"><text style=""><tspan xml:space="preserve" dy="1em" x="0" class="row">1</tspan></text></g></g><g class="edgeTerminals" transform="translate(2063.7892281652776, 1327.2511184604377)"><g class="inner" transform="translate(-2.890625, -6)"></g><text style=""><tspan xml:space="preserve" dy="1em" x="0" class="row">1</tspan></text></g><g class="edgeLabel" transform="translate(1073.48046875, 330.5)"><g class="label" transform="translate(-51.7578125, -9.5)"><rect rx="0" ry="0" width="103.51693725585938" height="17.703994750976562"></rect><text style=""><tspan xml:space="preserve" dy="1em" x="0" class="row">communicates</tspan></text></g></g><g class="edgeTerminals" transform="translate(1238.1032612567133, 204.28393410612367)"><g class="inner" transform="translate(-2.890625, -6)"><text style=""><tspan xml:space="preserve" dy="1em" x="0" class="row">1</tspan></text></g></g><g class="edgeTerminals" transform="translate(1083.480469375, 434.50000053571426)"><g class="inner" transform="translate(-2.890625, -6)"></g><text style=""><tspan xml:space="preserve" dy="1em" x="0" class="row">1</tspan></text></g><g class="edgeLabel" transform="translate(2147.78515625, 779.5)"><g class="label" transform="translate(-45.69921875, -9.5)"><rect rx="0" ry="0" width="91.40987396240234" height="17.703994750976562"></rect><text style=""><tspan xml:space="preserve" dy="1em" x="0" class="row">recommends</tspan></text></g></g><g class="edgeTerminals" transform="translate(2162.7851581249997, 1337.5000016071428)"><g class="inner" transform="translate(-2.890625, -6)"><text style=""><tspan xml:space="preserve" dy="1em" x="0" class="row">1</tspan></text></g></g><g class="edgeTerminals" transform="translate(1437.669313996068, 184.10179047481165)"><g class="inner" transform="translate(-8.9453125, -6)"></g><text style=""><tspan xml:space="preserve" dy="1em" x="0" class="row">0..*</tspan></text></g><g class="edgeLabel" transform="translate(1473.39453125, 330.5)"><g class="label" transform="translate(-29.859375, -9.5)"><rect rx="0" ry="0" width="59.7564697265625" height="17.703994750976562"></rect><text style=""><tspan xml:space="preserve" dy="1em" x="0" class="row">receives</tspan></text></g></g><g class="edgeTerminals" transform="translate(1426.8915895934606, 291.5730760384247)"><g class="inner" transform="translate(-2.890625, -6)"><text style=""><tspan xml:space="preserve" dy="1em" x="0" class="row">1</tspan></text></g></g><g class="edgeTerminals" transform="translate(1483.394530625, 399.99999946428574)"><g class="inner" transform="translate(-8.9453125, -6)"></g><text style=""><tspan xml:space="preserve" dy="1em" x="0" class="row">0..*</tspan></text></g><g class="edgeLabel" transform="translate(1896.328125, 330.5)"><g class="label" transform="translate(-26.671875, -9.5)"><rect rx="0" ry="0" width="53.386775970458984" height="17.703994750976562"></rect><text style=""><tspan xml:space="preserve" dy="1em" x="0" class="row">creates</tspan></text></g></g><g class="edgeTerminals" transform="translate(1440.8716045854421, 198.8316555402578)"><g class="inner" transform="translate(-2.890625, -6)"><text style=""><tspan xml:space="preserve" dy="1em" x="0" class="row">1</tspan></text></g></g><g class="edgeTerminals" transform="translate(1906.3281274999997, 400.00000214285717)"><g class="inner" transform="translate(-2.890625, -6)"></g><text style=""><tspan xml:space="preserve" dy="1em" x="0" class="row">1</tspan></text></g><g class="edgeLabel" transform="translate(1896.328125, 779.5)"><g class="label" transform="translate(-25.63671875, -9.5)"><rect rx="0" ry="0" width="51.090248107910156" height="17.703994750976562"></rect><text style=""><tspan xml:space="preserve" dy="1em" x="0" class="row">bids on</tspan></text></g></g><g class="edgeTerminals" transform="translate(1881.3281275000002, 705.0000021428572)"><g class="inner" transform="translate(-2.890625, -6)"><text style=""><tspan xml:space="preserve" dy="1em" x="0" class="row">1</tspan></text></g></g><g class="edgeTerminals" transform="translate(1904.4636185130498, 793.1233034636589)"><g class="inner" transform="translate(-8.9453125, -6)"></g><text style=""><tspan xml:space="preserve" dy="1em" x="0" class="row">0..*</tspan></text></g></g><g class="nodes"><g class="node default" id="classId-User-666" data-node="true" data-id="User" transform="translate(1344.904296875, 152)"><rect style="" class="outer title-state" x="-83.9375" y="-144" width="167.875" height="288"></rect><line class="divider" x1="-83.9375" x2="83.9375" y1="-113" y2="-113"></line><line class="divider" x1="-83.9375" x2="83.9375" y1="18" y2="18"></line><g class="label"><text style=""><tspan xml:space="preserve" dy="1em" x="0" class="title-row"></tspan></text><text style="" class="classTitle" transform="translate( -17.46484375, -136.5)"><tspan xml:space="preserve" dy="1em" x="0" class="title-row">User</tspan></text><text style="" transform="translate( -76.4375, -101.5)"><tspan xml:space="preserve" dy="1em" x="0" class="title-row">-String name</tspan></text><text style="" transform="translate( -76.4375, -78.5)"><tspan xml:space="preserve" dy="1em" x="0" class="title-row">-String email</tspan></text><text style="" transform="translate( -76.4375, -55.5)"><tspan xml:space="preserve" dy="1em" x="0" class="title-row">-String password</tspan></text><text style="" transform="translate( -76.4375, -32.5)"><tspan xml:space="preserve" dy="1em" x="0" class="title-row">-String phoneNumber</tspan></text><text style="" transform="translate( -76.4375, -9.5)"><tspan xml:space="preserve" dy="1em" x="0" class="title-row">-String profilePicture</tspan></text><text style="" transform="translate( -76.4375, 25.5)"><tspan xml:space="preserve" dy="1em" x="0" class="title-row">+register()</tspan></text><text style="" transform="translate( -76.4375, 48.5)"><tspan xml:space="preserve" dy="1em" x="0" class="title-row">+login()</tspan></text><text style="" transform="translate( -76.4375, 71.5)"><tspan xml:space="preserve" dy="1em" x="0" class="title-row">+logout()</tspan></text><text style="" transform="translate( -76.4375, 94.5)"><tspan xml:space="preserve" dy="1em" x="0" class="title-row">+updateProfile()</tspan></text><text style="" transform="translate( -76.4375, 117.5)"><tspan xml:space="preserve" dy="1em" x="0" class="title-row">+deleteAccount()</tspan></text></g></g><g class="node default" id="classId-Authentication-667" data-node="true" data-id="Authentication" transform="translate(126.1953125, 555)"><rect style="" class="outer title-state" x="-118.1953125" y="-86.5" width="236.390625" height="173"></rect><line class="divider" x1="-118.1953125" x2="118.1953125" y1="-55.5" y2="-55.5"></line><line class="divider" x1="-118.1953125" x2="118.1953125" y1="-16.5" y2="-16.5"></line><g class="label"><text style=""><tspan xml:space="preserve" dy="1em" x="0" class="title-row"></tspan></text><text style="" class="classTitle" transform="translate( -56.25, -79)"><tspan xml:space="preserve" dy="1em" x="0" class="title-row">Authentication</tspan></text><text style="" transform="translate( -110.6953125, -44)"><tspan xml:space="preserve" dy="1em" x="0" class="title-row">-String sessionToken</tspan></text><text style="" transform="translate( -110.6953125, -9)"><tspan xml:space="preserve" dy="1em" x="0" class="title-row">+secureLogin(email, password)</tspan></text><text style="" transform="translate( -110.6953125, 14)"><tspan xml:space="preserve" dy="1em" x="0" class="title-row">+socialMediaLogin(provider)</tspan></text><text style="" transform="translate( -110.6953125, 37)"><tspan xml:space="preserve" dy="1em" x="0" class="title-row">+passwordRecovery(email)</tspan></text><text style="" transform="translate( -110.6953125, 60)"><tspan xml:space="preserve" dy="1em" x="0" class="title-row">+enableTwoFactorAuth()</tspan></text></g></g><g class="node default" id="classId-Profile-668" data-node="true" data-id="Profile" transform="translate(437.76953125, 555)"><rect style="" class="outer title-state" x="-143.37890625" y="-190" width="286.7578125" height="380"></rect><line class="divider" x1="-143.37890625" x2="143.37890625" y1="-159" y2="-159"></line><line class="divider" x1="-143.37890625" x2="143.37890625" y1="18" y2="18"></line><g class="label"><text style=""><tspan xml:space="preserve" dy="1em" x="0" class="title-row"></tspan></text><text style="" class="classTitle" transform="translate( -24.9453125, -182.5)"><tspan xml:space="preserve" dy="1em" x="0" class="title-row">Profile</tspan></text><text style="" transform="translate( -135.87890625, -147.5)"><tspan xml:space="preserve" dy="1em" x="0" class="title-row">-String bio</tspan></text><text style="" transform="translate( -135.87890625, -124.5)"><tspan xml:space="preserve" dy="1em" x="0" class="title-row">-String location</tspan></text><text style="" transform="translate( -135.87890625, -101.5)"><tspan xml:space="preserve" dy="1em" x="0" class="title-row">-List skills</tspan></text><text style="" transform="translate( -135.87890625, -78.5)"><tspan xml:space="preserve" dy="1em" x="0" class="title-row">-String experience</tspan></text><text style="" transform="translate( -135.87890625, -55.5)"><tspan xml:space="preserve" dy="1em" x="0" class="title-row">-List previousWork</tspan></text><text style="" transform="translate( -135.87890625, -32.5)"><tspan xml:space="preserve" dy="1em" x="0" class="title-row">-double averageRating</tspan></text><text style="" transform="translate( -135.87890625, -9.5)"><tspan xml:space="preserve" dy="1em" x="0" class="title-row">-List reviews</tspan></text><text style="" transform="translate( -135.87890625, 25.5)"><tspan xml:space="preserve" dy="1em" x="0" class="title-row">+uploadProfilePicture()</tspan></text><text style="" transform="translate( -135.87890625, 48.5)"><tspan xml:space="preserve" dy="1em" x="0" class="title-row">+updatePrivacySettings()</tspan></text><text style="" transform="translate( -135.87890625, 71.5)"><tspan xml:space="preserve" dy="1em" x="0" class="title-row">+manageCommunicationPreferences()</tspan></text><text style="" transform="translate( -135.87890625, 94.5)"><tspan xml:space="preserve" dy="1em" x="0" class="title-row">+addReview(review)</tspan></text><text style="" transform="translate( -135.87890625, 117.5)"><tspan xml:space="preserve" dy="1em" x="0" class="title-row">+getAverageRating()</tspan></text><text style="" transform="translate( -135.87890625, 140.5)"><tspan xml:space="preserve" dy="1em" x="0" class="title-row">+readReviews()</tspan></text><text style="" transform="translate( -135.87890625, 163.5)"><tspan xml:space="preserve" dy="1em" x="0" class="title-row">+respondToReview(review)</tspan></text></g></g><g class="node default" id="classId-Task-669" data-node="true" data-id="Task" transform="translate(1869.509765625, 1038.5)"><rect style="" class="outer title-state" x="-118.41015625" y="-224.5" width="236.8203125" height="449"></rect><line class="divider" x1="-118.41015625" x2="118.41015625" y1="-193.5" y2="-193.5"></line><line class="divider" x1="-118.41015625" x2="118.41015625" y1="6.5" y2="6.5"></line><g class="label"><text style=""><tspan xml:space="preserve" dy="1em" x="0" class="title-row"></tspan></text><text style="" class="classTitle" transform="translate( -17.21484375, -217)"><tspan xml:space="preserve" dy="1em" x="0" class="title-row">Task</tspan></text><text style="" transform="translate( -110.91015625, -182)"><tspan xml:space="preserve" dy="1em" x="0" class="title-row">-String title</tspan></text><text style="" transform="translate( -110.91015625, -159)"><tspan xml:space="preserve" dy="1em" x="0" class="title-row">-String description</tspan></text><text style="" transform="translate( -110.91015625, -136)"><tspan xml:space="preserve" dy="1em" x="0" class="title-row">-String location</tspan></text><text style="" transform="translate( -110.91015625, -113)"><tspan xml:space="preserve" dy="1em" x="0" class="title-row">-Date date</tspan></text><text style="" transform="translate( -110.91015625, -90)"><tspan xml:space="preserve" dy="1em" x="0" class="title-row">-double budget</tspan></text><text style="" transform="translate( -110.91015625, -67)"><tspan xml:space="preserve" dy="1em" x="0" class="title-row">-List attachments</tspan></text><text style="" transform="translate( -110.91015625, -44)"><tspan xml:space="preserve" dy="1em" x="0" class="title-row">-String status</tspan></text><text style="" transform="translate( -110.91015625, -21)"><tspan xml:space="preserve" dy="1em" x="0" class="title-row">-User assignedTasker</tspan></text><text style="" transform="translate( -110.91015625, 14)"><tspan xml:space="preserve" dy="1em" x="0" class="title-row">+createTask()</tspan></text><text style="" transform="translate( -110.91015625, 37)"><tspan xml:space="preserve" dy="1em" x="0" class="title-row">+editTask()</tspan></text><text style="" transform="translate( -110.91015625, 60)"><tspan xml:space="preserve" dy="1em" x="0" class="title-row">+deleteTask()</tspan></text><text style="" transform="translate( -110.91015625, 83)"><tspan xml:space="preserve" dy="1em" x="0" class="title-row">+submitTask()</tspan></text><text style="" transform="translate( -110.91015625, 106)"><tspan xml:space="preserve" dy="1em" x="0" class="title-row">+previewTask()</tspan></text><text style="" transform="translate( -110.91015625, 129)"><tspan xml:space="preserve" dy="1em" x="0" class="title-row">+updateStatus(newStatus)</tspan></text><text style="" transform="translate( -110.91015625, 152)"><tspan xml:space="preserve" dy="1em" x="0" class="title-row">+attachFiles()</tspan></text><text style="" transform="translate( -110.91015625, 175)"><tspan xml:space="preserve" dy="1em" x="0" class="title-row">+assignTasker(tasker)</tspan></text><text style="" transform="translate( -110.91015625, 198)"><tspan xml:space="preserve" dy="1em" x="0" class="title-row">+updateTaskStatusToAssigned()</tspan></text></g></g><g class="node default" id="classId-TaskCategory-670" data-node="true" data-id="TaskCategory" transform="translate(1434.7890625, 1418.5)"><rect style="" class="outer title-state" x="-82.828125" y="-75" width="165.65625" height="150"></rect><line class="divider" x1="-82.828125" x2="82.828125" y1="-44" y2="-44"></line><line class="divider" x1="-82.828125" x2="82.828125" y1="18" y2="18"></line><g class="label"><text style=""><tspan xml:space="preserve" dy="1em" x="0" class="title-row"></tspan></text><text style="" class="classTitle" transform="translate( -49.984375, -67.5)"><tspan xml:space="preserve" dy="1em" x="0" class="title-row">TaskCategory</tspan></text><text style="" transform="translate( -75.328125, -32.5)"><tspan xml:space="preserve" dy="1em" x="0" class="title-row">-String name</tspan></text><text style="" transform="translate( -75.328125, -9.5)"><tspan xml:space="preserve" dy="1em" x="0" class="title-row">-List subcategories</tspan></text><text style="" transform="translate( -75.328125, 25.5)"><tspan xml:space="preserve" dy="1em" x="0" class="title-row">+selectCategory()</tspan></text><text style="" transform="translate( -75.328125, 48.5)"><tspan xml:space="preserve" dy="1em" x="0" class="title-row">+selectSubcategory()</tspan></text></g></g><g class="node default" id="classId-Search-671" data-node="true" data-id="Search" transform="translate(742.80078125, 555)"><rect style="" class="outer title-state" x="-111.65234375" y="-109.5" width="223.3046875" height="219"></rect><line class="divider" x1="-111.65234375" x2="111.65234375" y1="-78.5" y2="-78.5"></line><line class="divider" x1="-111.65234375" x2="111.65234375" y1="29.5" y2="29.5"></line><g class="label"><text style=""><tspan xml:space="preserve" dy="1em" x="0" class="title-row"></tspan></text><text style="" class="classTitle" transform="translate( -25.203125, -102)"><tspan xml:space="preserve" dy="1em" x="0" class="title-row">Search</tspan></text><text style="" transform="translate( -104.15234375, -67)"><tspan xml:space="preserve" dy="1em" x="0" class="title-row">-String keywords</tspan></text><text style="" transform="translate( -104.15234375, -44)"><tspan xml:space="preserve" dy="1em" x="0" class="title-row">-String locationFilter</tspan></text><text style="" transform="translate( -104.15234375, -21)"><tspan xml:space="preserve" dy="1em" x="0" class="title-row">-Date dateFilter</tspan></text><text style="" transform="translate( -104.15234375, 2)"><tspan xml:space="preserve" dy="1em" x="0" class="title-row">-double budgetRange</tspan></text><text style="" transform="translate( -104.15234375, 37)"><tspan xml:space="preserve" dy="1em" x="0" class="title-row">+executeSearch()</tspan></text><text style="" transform="translate( -104.15234375, 60)"><tspan xml:space="preserve" dy="1em" x="0" class="title-row">+applyFilters()</tspan></text><text style="" transform="translate( -104.15234375, 83)"><tspan xml:space="preserve" dy="1em" x="0" class="title-row">+findNearbyTaskers(location)</tspan></text></g></g><g class="node default" id="classId-MatchingAlgorithm-672" data-node="true" data-id="MatchingAlgorithm" transform="translate(2147.78515625, 1418.5)"><rect style="" class="outer title-state" x="-151.015625" y="-63.5" width="302.03125" height="127"></rect><line class="divider" x1="-151.015625" x2="151.015625" y1="-32.5" y2="-32.5"></line><line class="divider" x1="-151.015625" x2="151.015625" y1="-16.5" y2="-16.5"></line><g class="label"><text style=""><tspan xml:space="preserve" dy="1em" x="0" class="title-row"></tspan></text><text style="" class="classTitle" transform="translate( -70.54296875, -56)"><tspan xml:space="preserve" dy="1em" x="0" class="title-row">MatchingAlgorithm</tspan></text><text style="" transform="translate( -143.515625, -9)"><tspan xml:space="preserve" dy="1em" x="0" class="title-row">+findBestTaskers(task, availableTaskers)</tspan></text><text style="" transform="translate( -143.515625, 14)"><tspan xml:space="preserve" dy="1em" x="0" class="title-row">+prioritizeTaskers(task)</tspan></text><text style="" transform="translate( -143.515625, 37)"><tspan xml:space="preserve" dy="1em" x="0" class="title-row">+recommendTaskers(taskPoster, task)</tspan></text></g></g><g class="node default" id="classId-Review-673" data-node="true" data-id="Review" transform="translate(1757.193359375, 1418.5)"><rect style="" class="outer title-state" x="-121.6640625" y="-86.5" width="243.328125" height="173"></rect><line class="divider" x1="-121.6640625" x2="121.6640625" y1="-55.5" y2="-55.5"></line><line class="divider" x1="-121.6640625" x2="121.6640625" y1="29.5" y2="29.5"></line><g class="label"><text style=""><tspan xml:space="preserve" dy="1em" x="0" class="title-row"></tspan></text><text style="" class="classTitle" transform="translate( -27.4375, -79)"><tspan xml:space="preserve" dy="1em" x="0" class="title-row">Review</tspan></text><text style="" transform="translate( -114.1640625, -44)"><tspan xml:space="preserve" dy="1em" x="0" class="title-row">-String comment</tspan></text><text style="" transform="translate( -114.1640625, -21)"><tspan xml:space="preserve" dy="1em" x="0" class="title-row">-int rating</tspan></text><text style="" transform="translate( -114.1640625, 2)"><tspan xml:space="preserve" dy="1em" x="0" class="title-row">-Date date</tspan></text><text style="" transform="translate( -114.1640625, 37)"><tspan xml:space="preserve" dy="1em" x="0" class="title-row">+writeReview(comment, rating)</tspan></text><text style="" transform="translate( -114.1640625, 60)"><tspan xml:space="preserve" dy="1em" x="0" class="title-row">+getRatingScale()</tspan></text></g></g><g class="node default" id="classId-Messaging-674" data-node="true" data-id="Messaging" transform="translate(1073.48046875, 555)"><rect style="" class="outer title-state" x="-169.02734375" y="-98" width="338.0546875" height="196"></rect><line class="divider" x1="-169.02734375" x2="169.02734375" y1="-67" y2="-67"></line><line class="divider" x1="-169.02734375" x2="169.02734375" y1="-51" y2="-51"></line><g class="label"><text style=""><tspan xml:space="preserve" dy="1em" x="0" class="title-row"></tspan></text><text style="" class="classTitle" transform="translate( -37.8359375, -90.5)"><tspan xml:space="preserve" dy="1em" x="0" class="title-row">Messaging</tspan></text><text style="" transform="translate( -161.52734375, -43.5)"><tspan xml:space="preserve" dy="1em" x="0" class="title-row">+sendMessage(sender, receiver, message)</tspan></text><text style="" transform="translate( -161.52734375, -20.5)"><tspan xml:space="preserve" dy="1em" x="0" class="title-row">+viewChatHistory(participant1, participant2)</tspan></text><text style="" transform="translate( -161.52734375, 2.5)"><tspan xml:space="preserve" dy="1em" x="0" class="title-row">+uploadMedia(content)</tspan></text><text style="" transform="translate( -161.52734375, 25.5)"><tspan xml:space="preserve" dy="1em" x="0" class="title-row">+searchMessages(keyword)</tspan></text><text style="" transform="translate( -161.52734375, 48.5)"><tspan xml:space="preserve" dy="1em" x="0" class="title-row">+filterConversations()</tspan></text><text style="" transform="translate( -161.52734375, 71.5)"><tspan xml:space="preserve" dy="1em" x="0" class="title-row">+notifyNewMessage()</tspan></text></g></g><g class="node default" id="classId-Notification-675" data-node="true" data-id="Notification" transform="translate(1473.39453125, 555)"><rect style="" class="outer title-state" x="-180.88671875" y="-132.5" width="361.7734375" height="265"></rect><line class="divider" x1="-180.88671875" x2="180.88671875" y1="-101.5" y2="-101.5"></line><line class="divider" x1="-180.88671875" x2="180.88671875" y1="-16.5" y2="-16.5"></line><g class="label"><text style=""><tspan xml:space="preserve" dy="1em" x="0" class="title-row"></tspan></text><text style="" class="classTitle" transform="translate( -43.9375, -125)"><tspan xml:space="preserve" dy="1em" x="0" class="title-row">Notification</tspan></text><text style="" transform="translate( -173.38671875, -90)"><tspan xml:space="preserve" dy="1em" x="0" class="title-row">-String message</tspan></text><text style="" transform="translate( -173.38671875, -67)"><tspan xml:space="preserve" dy="1em" x="0" class="title-row">-Date timestamp</tspan></text><text style="" transform="translate( -173.38671875, -44)"><tspan xml:space="preserve" dy="1em" x="0" class="title-row">-String channel</tspan></text><text style="" transform="translate( -173.38671875, -9)"><tspan xml:space="preserve" dy="1em" x="0" class="title-row">+customizePreferences()</tspan></text><text style="" transform="translate( -173.38671875, 14)"><tspan xml:space="preserve" dy="1em" x="0" class="title-row">+sendTaskUpdateNotification(task)</tspan></text><text style="" transform="translate( -173.38671875, 37)"><tspan xml:space="preserve" dy="1em" x="0" class="title-row">+sendTaskAssignmentNotification(task, tasker)</tspan></text><text style="" transform="translate( -173.38671875, 60)"><tspan xml:space="preserve" dy="1em" x="0" class="title-row">+sendMessageNotification(message)</tspan></text><text style="" transform="translate( -173.38671875, 83)"><tspan xml:space="preserve" dy="1em" x="0" class="title-row">+sendFeedbackRequestNotification(task, tasker)</tspan></text><text style="" transform="translate( -173.38671875, 106)"><tspan xml:space="preserve" dy="1em" x="0" class="title-row">+sendSystemUpdateNotification()</tspan></text></g></g><g class="node default" id="classId-TaskerProfile-676" data-node="true" data-id="TaskerProfile" transform="translate(1896.328125, 555)"><rect style="" class="outer title-state" x="-110.5078125" y="-132.5" width="221.015625" height="265"></rect><line class="divider" x1="-110.5078125" x2="110.5078125" y1="-101.5" y2="-101.5"></line><line class="divider" x1="-110.5078125" x2="110.5078125" y1="6.5" y2="6.5"></line><g class="label"><text style=""><tspan xml:space="preserve" dy="1em" x="0" class="title-row"></tspan></text><text style="" class="classTitle" transform="translate( -49.5546875, -125)"><tspan xml:space="preserve" dy="1em" x="0" class="title-row">TaskerProfile</tspan></text><text style="" transform="translate( -103.0078125, -90)"><tspan xml:space="preserve" dy="1em" x="0" class="title-row">-List skills</tspan></text><text style="" transform="translate( -103.0078125, -67)"><tspan xml:space="preserve" dy="1em" x="0" class="title-row">-List certifications</tspan></text><text style="" transform="translate( -103.0078125, -44)"><tspan xml:space="preserve" dy="1em" x="0" class="title-row">-List previousWorkSamples</tspan></text><text style="" transform="translate( -103.0078125, -21)"><tspan xml:space="preserve" dy="1em" x="0" class="title-row">-double pricing</tspan></text><text style="" transform="translate( -103.0078125, 14)"><tspan xml:space="preserve" dy="1em" x="0" class="title-row">+showcaseSkills()</tspan></text><text style="" transform="translate( -103.0078125, 37)"><tspan xml:space="preserve" dy="1em" x="0" class="title-row">+uploadPortfolio()</tspan></text><text style="" transform="translate( -103.0078125, 60)"><tspan xml:space="preserve" dy="1em" x="0" class="title-row">+setPricing()</tspan></text><text style="" transform="translate( -103.0078125, 83)"><tspan xml:space="preserve" dy="1em" x="0" class="title-row">+bidOnTask(task)</tspan></text><text style="" transform="translate( -103.0078125, 106)"><tspan xml:space="preserve" dy="1em" x="0" class="title-row">+displayRatingsAndReviews()</tspan></text></g></g></g></g></g></svg>