<svg xmlns="http://www.w3.org/2000/svg" xmlns:xlink="http://www.w3.org/1999/xlink" contentstyletype="text/css" height="208px" preserveAspectRatio="none" style="width:1985px;height:208px;background:#FFFFFF;" version="1.1" viewBox="0 0 1985 208" width="1985px" zoomAndPan="magnify"><defs></defs><g><!--class User--><g id="elem_User"><rect codeline="1" fill="#F1F1F1" height="194.6719" id="User" rx="2.5" ry="2.5" style="stroke:#181818;stroke-width:0.5;" width="221" x="7" y="7"></rect><ellipse cx="97.25" cy="23" fill="#ADD1B2" rx="11" ry="11" style="stroke:#181818;stroke-width:1.0;"></ellipse><path d="M100.2188,28.6406 Q99.6406,28.9375 99,29.0781 Q98.3594,29.2344 97.6563,29.2344 Q95.1563,29.2344 93.8281,27.5938 Q92.5156,25.9375 92.5156,22.8125 Q92.5156,19.6875 93.8281,18.0313 Q95.1563,16.375 97.6563,16.375 Q98.3594,16.375 99,16.5313 Q99.6563,16.6875 100.2188,16.9844 L100.2188,19.7031 Q99.5938,19.125 99,18.8594 Q98.4063,18.5781 97.7813,18.5781 Q96.4375,18.5781 95.75,19.6563 Q95.0625,20.7188 95.0625,22.8125 Q95.0625,24.9063 95.75,25.9844 Q96.4375,27.0469 97.7813,27.0469 Q98.4063,27.0469 99,26.7813 Q99.5938,26.5 100.2188,25.9219 L100.2188,28.6406 Z " fill="#000000"></path><text fill="#000000" font-family="sans-serif" font-size="14" lengthAdjust="spacing" textLength="32" x="117.75" y="27.8467">User</text><line style="stroke:#181818;stroke-width:0.5;" x1="8" x2="227" y1="39" y2="39"></line><ellipse cx="18" cy="52.6484" fill="none" rx="3" ry="3" style="stroke:#038048;stroke-width:1.0;"></ellipse><text fill="#000000" font-family="sans-serif" font-size="14" lengthAdjust="spacing" textLength="88" x="27" y="55.9951">name: String</text><ellipse cx="18" cy="68.9453" fill="none" rx="3" ry="3" style="stroke:#038048;stroke-width:1.0;"></ellipse><text fill="#000000" font-family="sans-serif" font-size="14" lengthAdjust="spacing" textLength="85" x="27" y="72.292">email: String</text><ellipse cx="18" cy="85.2422" fill="none" rx="3" ry="3" style="stroke:#038048;stroke-width:1.0;"></ellipse><text fill="#000000" font-family="sans-serif" font-size="14" lengthAdjust="spacing" textLength="116" x="27" y="88.5889">password: String</text><ellipse cx="18" cy="101.5391" fill="none" rx="3" ry="3" style="stroke:#038048;stroke-width:1.0;"></ellipse><text fill="#000000" font-family="sans-serif" font-size="14" lengthAdjust="spacing" textLength="149" x="27" y="104.8857">phoneNumber: String</text><ellipse cx="18" cy="117.8359" fill="none" rx="3" ry="3" style="stroke:#038048;stroke-width:1.0;"></ellipse><text fill="#000000" font-family="sans-serif" font-size="14" lengthAdjust="spacing" textLength="139" x="27" y="121.1826">profilePicture: String</text><line style="stroke:#181818;stroke-width:0.5;" x1="8" x2="227" y1="128.4844" y2="128.4844"></line><ellipse cx="18" cy="142.1328" fill="#84BE84" rx="3" ry="3" style="stroke:#038048;stroke-width:1.0;"></ellipse><text fill="#000000" font-family="sans-serif" font-size="14" lengthAdjust="spacing" textLength="63" x="27" y="145.4795">register()</text><ellipse cx="18" cy="158.4297" fill="#84BE84" rx="3" ry="3" style="stroke:#038048;stroke-width:1.0;"></ellipse><text fill="#000000" font-family="sans-serif" font-size="14" lengthAdjust="spacing" textLength="43" x="27" y="161.7764">login()</text><ellipse cx="18" cy="174.7266" fill="#84BE84" rx="3" ry="3" style="stroke:#038048;stroke-width:1.0;"></ellipse><text fill="#000000" font-family="sans-serif" font-size="14" lengthAdjust="spacing" textLength="195" x="27" y="178.0732">requestPasswordRecovery()</text><ellipse cx="18" cy="191.0234" fill="#84BE84" rx="3" ry="3" style="stroke:#038048;stroke-width:1.0;"></ellipse><text fill="#000000" font-family="sans-serif" font-size="14" lengthAdjust="spacing" textLength="96" x="27" y="194.3701">createProfile()</text></g><!--class Server--><g id="elem_Server"><rect codeline="13" fill="#F1F1F1" height="129.4844" id="Server" rx="2.5" ry="2.5" style="stroke:#181818;stroke-width:0.5;" width="372" x="439.5" y="39.59"></rect><ellipse cx="599.25" cy="55.59" fill="#ADD1B2" rx="11" ry="11" style="stroke:#181818;stroke-width:1.0;"></ellipse><path d="M602.2188,61.2306 Q601.6406,61.5275 601,61.6681 Q600.3594,61.8244 599.6563,61.8244 Q597.1563,61.8244 595.8281,60.1837 Q594.5156,58.5275 594.5156,55.4025 Q594.5156,52.2775 595.8281,50.6212 Q597.1563,48.965 599.6563,48.965 Q600.3594,48.965 601,49.1212 Q601.6563,49.2775 602.2188,49.5744 L602.2188,52.2931 Q601.5938,51.715 601,51.4494 Q600.4063,51.1681 599.7813,51.1681 Q598.4375,51.1681 597.75,52.2462 Q597.0625,53.3087 597.0625,55.4025 Q597.0625,57.4962 597.75,58.5744 Q598.4375,59.6369 599.7813,59.6369 Q600.4063,59.6369 601,59.3712 Q601.5938,59.09 602.2188,58.5119 L602.2188,61.2306 Z " fill="#000000"></path><text fill="#000000" font-family="sans-serif" font-size="14" lengthAdjust="spacing" textLength="44" x="619.75" y="60.4367">Server</text><line style="stroke:#181818;stroke-width:0.5;" x1="440.5" x2="810.5" y1="71.59" y2="71.59"></line><line style="stroke:#181818;stroke-width:0.5;" x1="440.5" x2="810.5" y1="79.59" y2="79.59"></line><ellipse cx="450.5" cy="93.2384" fill="#84BE84" rx="3" ry="3" style="stroke:#038048;stroke-width:1.0;"></ellipse><text fill="#000000" font-family="sans-serif" font-size="14" lengthAdjust="spacing" textLength="182" x="459.5" y="96.5851">storeUserData(user: User)</text><ellipse cx="450.5" cy="109.5353" fill="#84BE84" rx="3" ry="3" style="stroke:#038048;stroke-width:1.0;"></ellipse><text fill="#000000" font-family="sans-serif" font-size="14" lengthAdjust="spacing" textLength="346" x="459.5" y="112.882">validateSocialMediaCredentials(credentials: String)</text><ellipse cx="450.5" cy="125.8322" fill="#84BE84" rx="3" ry="3" style="stroke:#038048;stroke-width:1.0;"></ellipse><text fill="#000000" font-family="sans-serif" font-size="14" lengthAdjust="spacing" textLength="240" x="459.5" y="129.1789">sendConfirmationEmail(user: User)</text><ellipse cx="450.5" cy="142.1291" fill="#84BE84" rx="3" ry="3" style="stroke:#038048;stroke-width:1.0;"></ellipse><text fill="#000000" font-family="sans-serif" font-size="14" lengthAdjust="spacing" textLength="303" x="459.5" y="145.4757">handleLogin(email: String, password: String)</text><ellipse cx="450.5" cy="158.4259" fill="#84BE84" rx="3" ry="3" style="stroke:#038048;stroke-width:1.0;"></ellipse><text fill="#000000" font-family="sans-serif" font-size="14" lengthAdjust="spacing" textLength="230" x="459.5" y="161.7726">sendRecoveryEmail(email: String)</text></g><!--class Database--><g id="elem_Database"><rect codeline="21" fill="#F1F1F1" height="96.8906" id="Database" rx="2.5" ry="2.5" style="stroke:#181818;stroke-width:0.5;" width="217" x="1003" y="55.89"></rect><ellipse cx="1074.25" cy="71.89" fill="#ADD1B2" rx="11" ry="11" style="stroke:#181818;stroke-width:1.0;"></ellipse><path d="M1077.2188,77.5306 Q1076.6406,77.8275 1076,77.9681 Q1075.3594,78.1244 1074.6563,78.1244 Q1072.1563,78.1244 1070.8281,76.4837 Q1069.5156,74.8275 1069.5156,71.7025 Q1069.5156,68.5775 1070.8281,66.9212 Q1072.1563,65.265 1074.6563,65.265 Q1075.3594,65.265 1076,65.4212 Q1076.6563,65.5775 1077.2188,65.8744 L1077.2188,68.5931 Q1076.5938,68.015 1076,67.7494 Q1075.4063,67.4681 1074.7813,67.4681 Q1073.4375,67.4681 1072.75,68.5462 Q1072.0625,69.6087 1072.0625,71.7025 Q1072.0625,73.7962 1072.75,74.8744 Q1073.4375,75.9369 1074.7813,75.9369 Q1075.4063,75.9369 1076,75.6712 Q1076.5938,75.39 1077.2188,74.8119 L1077.2188,77.5306 Z " fill="#000000"></path><text fill="#000000" font-family="sans-serif" font-size="14" lengthAdjust="spacing" textLength="66" x="1094.75" y="76.7367">Database</text><line style="stroke:#181818;stroke-width:0.5;" x1="1004" x2="1219" y1="87.89" y2="87.89"></line><line style="stroke:#181818;stroke-width:0.5;" x1="1004" x2="1219" y1="95.89" y2="95.89"></line><ellipse cx="1014" cy="109.5384" fill="#84BE84" rx="3" ry="3" style="stroke:#038048;stroke-width:1.0;"></ellipse><text fill="#000000" font-family="sans-serif" font-size="14" lengthAdjust="spacing" textLength="146" x="1023" y="112.8851">saveUser(user: User)</text><ellipse cx="1014" cy="125.8353" fill="#84BE84" rx="3" ry="3" style="stroke:#038048;stroke-width:1.0;"></ellipse><text fill="#000000" font-family="sans-serif" font-size="14" lengthAdjust="spacing" textLength="191" x="1023" y="129.182">getUser(email: String): User</text><ellipse cx="1014" cy="142.1322" fill="#84BE84" rx="3" ry="3" style="stroke:#038048;stroke-width:1.0;"></ellipse><text fill="#000000" font-family="sans-serif" font-size="14" lengthAdjust="spacing" textLength="181" x="1023" y="145.4789">storeProfile(profile: Profile)</text></g><!--class Profile--><g id="elem_Profile"><rect codeline="27" fill="#F1F1F1" height="145.7813" id="Profile" rx="2.5" ry="2.5" style="stroke:#181818;stroke-width:0.5;" width="164" x="1255.5" y="31.44"></rect><ellipse cx="1312.25" cy="47.44" fill="#ADD1B2" rx="11" ry="11" style="stroke:#181818;stroke-width:1.0;"></ellipse><path d="M1315.2188,53.0806 Q1314.6406,53.3775 1314,53.5181 Q1313.3594,53.6744 1312.6563,53.6744 Q1310.1563,53.6744 1308.8281,52.0338 Q1307.5156,50.3775 1307.5156,47.2525 Q1307.5156,44.1275 1308.8281,42.4713 Q1310.1563,40.815 1312.6563,40.815 Q1313.3594,40.815 1314,40.9713 Q1314.6563,41.1275 1315.2188,41.4244 L1315.2188,44.1431 Q1314.5938,43.565 1314,43.2994 Q1313.4063,43.0181 1312.7813,43.0181 Q1311.4375,43.0181 1310.75,44.0963 Q1310.0625,45.1588 1310.0625,47.2525 Q1310.0625,49.3463 1310.75,50.4244 Q1311.4375,51.4869 1312.7813,51.4869 Q1313.4063,51.4869 1314,51.2213 Q1314.5938,50.94 1315.2188,50.3619 L1315.2188,53.0806 Z " fill="#000000"></path><text fill="#000000" font-family="sans-serif" font-size="14" lengthAdjust="spacing" textLength="42" x="1332.75" y="52.2867">Profile</text><line style="stroke:#181818;stroke-width:0.5;" x1="1256.5" x2="1418.5" y1="63.44" y2="63.44"></line><ellipse cx="1266.5" cy="77.0884" fill="none" rx="3" ry="3" style="stroke:#038048;stroke-width:1.0;"></ellipse><text fill="#000000" font-family="sans-serif" font-size="14" lengthAdjust="spacing" textLength="70" x="1275.5" y="80.4351">bio: String</text><ellipse cx="1266.5" cy="93.3853" fill="none" rx="3" ry="3" style="stroke:#038048;stroke-width:1.0;"></ellipse><text fill="#000000" font-family="sans-serif" font-size="14" lengthAdjust="spacing" textLength="103" x="1275.5" y="96.732">location: String</text><ellipse cx="1266.5" cy="109.6822" fill="none" rx="3" ry="3" style="stroke:#038048;stroke-width:1.0;"></ellipse><text fill="#000000" font-family="sans-serif" font-size="14" lengthAdjust="spacing" textLength="129" x="1275.5" y="113.0289">skills: List&lt;String&gt;</text><ellipse cx="1266.5" cy="125.9791" fill="none" rx="3" ry="3" style="stroke:#038048;stroke-width:1.0;"></ellipse><text fill="#000000" font-family="sans-serif" font-size="14" lengthAdjust="spacing" textLength="126" x="1275.5" y="129.3257">experience: String</text><ellipse cx="1266.5" cy="142.2759" fill="none" rx="3" ry="3" style="stroke:#038048;stroke-width:1.0;"></ellipse><text fill="#000000" font-family="sans-serif" font-size="14" lengthAdjust="spacing" textLength="138" x="1275.5" y="145.6226">qualifications: String</text><line style="stroke:#181818;stroke-width:0.5;" x1="1256.5" x2="1418.5" y1="152.9244" y2="152.9244"></line><ellipse cx="1266.5" cy="166.5728" fill="#84BE84" rx="3" ry="3" style="stroke:#038048;stroke-width:1.0;"></ellipse><text fill="#000000" font-family="sans-serif" font-size="14" lengthAdjust="spacing" textLength="101" x="1275.5" y="169.9195">updateProfile()</text></g><!--class Authentication--><g id="elem_Authentication"><rect codeline="36" fill="#F1F1F1" height="96.8906" id="Authentication" rx="2.5" ry="2.5" style="stroke:#181818;stroke-width:0.5;" width="524" x="1454.5" y="55.89"></rect><ellipse cx="1662.25" cy="71.89" fill="#ADD1B2" rx="11" ry="11" style="stroke:#181818;stroke-width:1.0;"></ellipse><path d="M1665.2188,77.5306 Q1664.6406,77.8275 1664,77.9681 Q1663.3594,78.1244 1662.6563,78.1244 Q1660.1563,78.1244 1658.8281,76.4837 Q1657.5156,74.8275 1657.5156,71.7025 Q1657.5156,68.5775 1658.8281,66.9212 Q1660.1563,65.265 1662.6563,65.265 Q1663.3594,65.265 1664,65.4212 Q1664.6563,65.5775 1665.2188,65.8744 L1665.2188,68.5931 Q1664.5938,68.015 1664,67.7494 Q1663.4063,67.4681 1662.7813,67.4681 Q1661.4375,67.4681 1660.75,68.5462 Q1660.0625,69.6087 1660.0625,71.7025 Q1660.0625,73.7962 1660.75,74.8744 Q1661.4375,75.9369 1662.7813,75.9369 Q1663.4063,75.9369 1664,75.6712 Q1664.5938,75.39 1665.2188,74.8119 L1665.2188,77.5306 Z " fill="#000000"></path><text fill="#000000" font-family="sans-serif" font-size="14" lengthAdjust="spacing" textLength="100" x="1682.75" y="76.7367">Authentication</text><line style="stroke:#181818;stroke-width:0.5;" x1="1455.5" x2="1977.5" y1="87.89" y2="87.89"></line><line style="stroke:#181818;stroke-width:0.5;" x1="1455.5" x2="1977.5" y1="95.89" y2="95.89"></line><ellipse cx="1465.5" cy="109.5384" fill="#84BE84" rx="3" ry="3" style="stroke:#038048;stroke-width:1.0;"></ellipse><text fill="#000000" font-family="sans-serif" font-size="14" lengthAdjust="spacing" textLength="276" x="1474.5" y="112.8851">hashPassword(password: String): String</text><ellipse cx="1465.5" cy="125.8353" fill="#84BE84" rx="3" ry="3" style="stroke:#038048;stroke-width:1.0;"></ellipse><text fill="#000000" font-family="sans-serif" font-size="14" lengthAdjust="spacing" textLength="498" x="1474.5" y="129.182">verifyPassword(inputPassword: String, storedPassword: String): Boolean</text><ellipse cx="1465.5" cy="142.1322" fill="#84BE84" rx="3" ry="3" style="stroke:#038048;stroke-width:1.0;"></ellipse><text fill="#000000" font-family="sans-serif" font-size="14" lengthAdjust="spacing" textLength="229" x="1474.5" y="145.4789">enableTwoFactorAuthentication()</text></g><!--link User to Server--><g id="link_User_Server"><path codeline="42" d="M228.48,43.21 C234.06,41.34 239.67,39.69 245.25,38.33 C283.47,29.04 383.4,32.18 422.25,38.33 C427.84,39.22 427.5957,39.0573 433.2657,40.1873 " fill="none" id="User-to-Server" style="stroke:#181818;stroke-width:1.0;"></path><polygon fill="#181818" points="439.15,41.36,431.1054,35.6781,434.2464,40.3827,429.5418,43.5238,439.15,41.36" style="stroke:#181818;stroke-width:1.0;"></polygon><text fill="#000000" font-family="sans-serif" font-size="13" lengthAdjust="spacing" textLength="52" x="307.75" y="28.3969">Register</text></g><!--link Server to User--><g id="link_Server_User"><path codeline="45" d="M439.23,84.86 C377.45,80.98 308.36,79.42 245.25,84.33 C239.65,84.77 239.8955,84.6679 234.1355,85.2879 " fill="none" id="Server-to-User" style="stroke:#181818;stroke-width:1.0;"></path><polygon fill="#181818" points="228.17,85.93,237.5464,88.9438,233.1413,85.3949,236.6902,80.9898,228.17,85.93" style="stroke:#181818;stroke-width:1.0;"></polygon><text fill="#000000" font-family="sans-serif" font-size="13" lengthAdjust="spacing" textLength="156" x="255.75" y="74.3969">Send confirmation email</text></g><!--link User to Server--><g id="link_User_Server"><path codeline="46" d="M228.15,184.99 C235.42,188.24 242.82,191.07 250.25,193.33 C268,198.73 399.07,197.06 417.25,193.33 C443.15,188.03 464.2328,181.5571 489.4728,171.6771 " fill="none" id="User-to-Server-1" style="stroke:#181818;stroke-width:1.0;"></path><polygon fill="#181818" points="495.06,169.49,485.2212,169.0458,490.404,171.3126,488.1372,176.4954,495.06,169.49" style="stroke:#181818;stroke-width:1.0;"></polygon><text fill="#000000" font-family="sans-serif" font-size="13" lengthAdjust="spacing" textLength="38" x="314.75" y="189.3969">Log in</text></g><!--link Server to User--><g id="link_Server_User"><path codeline="49" d="M439.12,63.33 C433.44,62.58 427.81,61.92 422.25,61.33 C383.13,57.24 284.07,54.98 245.25,61.33 C239.71,62.24 239.9334,62.0419 234.2934,63.3119 " fill="none" id="Server-to-User-1" style="stroke:#181818;stroke-width:1.0;"></path><polygon fill="#181818" points="228.44,64.63,238.0989,66.5552,233.3179,63.5316,236.3414,58.7506,228.44,64.63" style="stroke:#181818;stroke-width:1.0;"></polygon><text fill="#000000" font-family="sans-serif" font-size="13" lengthAdjust="spacing" textLength="104" x="281.75" y="51.3969">Login successful</text></g><!--link User to Server--><g id="link_User_Server"><path codeline="50" d="M228.36,104.33 C290.03,104.33 362.42,104.33 433.23,104.33 " fill="none" id="User-to-Server-2" style="stroke:#181818;stroke-width:1.0;"></path><polygon fill="#181818" points="439.23,104.33,430.23,100.33,434.23,104.33,430.23,108.33,439.23,104.33" style="stroke:#181818;stroke-width:1.0;"></polygon><text fill="#000000" font-family="sans-serif" font-size="13" lengthAdjust="spacing" textLength="175" x="246.25" y="97.3969">Request password recovery</text></g><!--link Server to User--><g id="link_Server_User"><path codeline="53" d="M439.46,145.56 C378.97,153.65 311.62,157.03 250.25,147.33 C243.07,146.2 241.5966,146.088 234.2666,144.398 " fill="none" id="Server-to-User-2" style="stroke:#181818;stroke-width:1.0;"></path><polygon fill="#181818" points="228.42,143.05,236.2913,148.9697,233.2922,144.1733,238.0886,141.1742,228.42,143.05" style="stroke:#181818;stroke-width:1.0;"></polygon><text fill="#000000" font-family="sans-serif" font-size="13" lengthAdjust="spacing" textLength="131" x="268.25" y="143.3969">Send recovery email</text></g><!--link User to Server--><g id="link_User_Server"><path codeline="54" d="M228.39,163.96 C235.66,166.46 242.98,168.63 250.25,170.33 C286.38,178.82 380.57,176.01 417.25,170.33 C424.47,169.22 425.8896,169.0921 433.2396,167.6021 " fill="none" id="User-to-Server-3" style="stroke:#181818;stroke-width:1.0;"></path><polygon fill="#181818" points="439.12,166.41,429.5047,164.2779,434.2197,167.4034,431.0941,172.1184,439.12,166.41" style="stroke:#181818;stroke-width:1.0;"></polygon><text fill="#000000" font-family="sans-serif" font-size="13" lengthAdjust="spacing" textLength="86" x="290.75" y="166.3969">Create profile</text></g><!--link Server to User--><g id="link_Server_User"><path codeline="57" d="M439.3,123.67 C378.95,127.42 311.73,128.94 250.25,124.33 C243.04,123.79 241.6041,123.7456 234.1441,122.9256 " fill="none" id="Server-to-User-3" style="stroke:#181818;stroke-width:1.0;"></path><polygon fill="#181818" points="228.18,122.27,236.6891,127.2294,233.1501,122.8163,237.5632,119.2773,228.18,122.27" style="stroke:#181818;stroke-width:1.0;"></polygon><text fill="#000000" font-family="sans-serif" font-size="13" lengthAdjust="spacing" textLength="165" x="251.25" y="120.3969">Profile creation successful</text></g><!--link Server to Database--><g id="link_Server_Database"><path codeline="43" d="M811.88,63.33 C817.56,62.58 823.19,61.92 828.75,61.33 C863.45,57.7 951.33,55.61 985.75,61.33 C991.33,62.26 991.144,62.0493 996.814,63.3593 " fill="none" id="Server-to-Database" style="stroke:#181818;stroke-width:1.0;"></path><polygon fill="#181818" points="1002.66,64.71,994.7914,58.7867,997.7883,63.5844,992.9906,66.5813,1002.66,64.71" style="stroke:#181818;stroke-width:1.0;"></polygon><text fill="#000000" font-family="sans-serif" font-size="13" lengthAdjust="spacing" textLength="100" x="857.25" y="51.3969">Store user data</text></g><!--link Database to Server--><g id="link_Database_Server"><path codeline="44" d="M1002.57,85.93 C996.89,85.31 991.26,84.77 985.75,84.33 C929.24,79.87 873.6489,80.6953 817.6489,84.1053 " fill="none" id="Database-to-Server" style="stroke:#181818;stroke-width:1.0;"></path><polygon fill="#181818" points="811.66,84.47,820.8865,87.9156,816.6508,84.1661,820.4002,79.9304,811.66,84.47" style="stroke:#181818;stroke-width:1.0;"></polygon><text fill="#000000" font-family="sans-serif" font-size="13" lengthAdjust="spacing" textLength="108" x="853.25" y="74.3969">User data stored</text></g><!--link Server to Database--><g id="link_Server_Database"><path codeline="47" d="M811.72,123.89 C863.4,126.93 919.52,128 971.25,124.33 C981.43,123.61 986.0377,123.2719 996.5977,122.0819 " fill="none" id="Server-to-Database-1" style="stroke:#181818;stroke-width:1.0;"></path><polygon fill="#181818" points="1002.56,121.41,993.1687,118.443,997.5914,121.9699,994.0645,126.3927,1002.56,121.41" style="stroke:#181818;stroke-width:1.0;"></polygon><text fill="#000000" font-family="sans-serif" font-size="13" lengthAdjust="spacing" textLength="126" x="844.25" y="120.3969">Validate credentials</text></g><!--link Database to Server--><g id="link_Database_Server"><path codeline="48" d="M1002.74,141.1 C992.19,143.63 981.58,145.79 971.25,147.33 C919.65,155.07 869.5327,153.4621 817.8527,146.9321 " fill="none" id="Database-to-Server-1" style="stroke:#181818;stroke-width:1.0;"></path><polygon fill="#181818" points="811.9,146.18,820.3276,151.2767,816.8606,146.8068,821.3304,143.3398,811.9,146.18" style="stroke:#181818;stroke-width:1.0;"></polygon><text fill="#000000" font-family="sans-serif" font-size="13" lengthAdjust="spacing" textLength="105" x="854.75" y="143.3969">Credentials valid</text></g><!--link Server to Database--><g id="link_Server_Database"><path codeline="51" d="M762.11,169.5 C788.48,179.38 816.3,188.04 843.25,193.33 C871.16,198.82 943.93,201.27 971.25,193.33 C999.64,185.09 1022.8195,172.5701 1046.3595,156.4501 " fill="none" id="Server-to-Database-2" style="stroke:#181818;stroke-width:1.0;"></path><polygon fill="#181818" points="1051.31,153.06,1041.6242,154.8448,1047.1846,155.8851,1046.1443,161.4454,1051.31,153.06" style="stroke:#181818;stroke-width:1.0;"></polygon><text fill="#000000" font-family="sans-serif" font-size="13" lengthAdjust="spacing" textLength="75" x="869.75" y="189.3969">Verify email</text></g><!--link Database to Server--><g id="link_Database_Server"><path codeline="52" d="M1022.67,153.2 C1006.03,160.29 988.45,166.49 971.25,170.33 C943.49,176.54 871.39,174.5 843.25,170.33 C832.9,168.8 828.2232,168.0968 817.6432,165.8868 " fill="none" id="Database-to-Server-2" style="stroke:#181818;stroke-width:1.0;"></path><polygon fill="#181818" points="811.77,164.66,819.762,170.4157,816.6644,165.6824,821.3977,162.5848,811.77,164.66" style="stroke:#181818;stroke-width:1.0;"></polygon><text fill="#000000" font-family="sans-serif" font-size="13" lengthAdjust="spacing" textLength="85" x="864.75" y="166.3969">Email verified</text></g><!--link Server to Database--><g id="link_Server_Database"><path codeline="55" d="M811.66,104.33 C876.21,104.33 940.42,104.33 996.67,104.33 " fill="none" id="Server-to-Database-3" style="stroke:#181818;stroke-width:1.0;"></path><polygon fill="#181818" points="1002.67,104.33,993.67,100.33,997.67,104.33,993.67,108.33,1002.67,104.33" style="stroke:#181818;stroke-width:1.0;"></polygon><text fill="#000000" font-family="sans-serif" font-size="13" lengthAdjust="spacing" textLength="155" x="829.75" y="97.3969">Store profile information</text></g><!--link Database to Server--><g id="link_Database_Server"><path codeline="56" d="M1032.28,55.51 C1017.32,48.41 1001.43,42.2 985.75,38.33 C951.87,29.98 863.21,32.88 828.75,38.33 C823.16,39.22 823.4043,39.0573 817.7343,40.1873 " fill="none" id="Database-to-Server-3" style="stroke:#181818;stroke-width:1.0;"></path><polygon fill="#181818" points="811.85,41.36,821.4582,43.5238,816.7536,40.3827,819.8946,35.6781,811.85,41.36" style="stroke:#181818;stroke-width:1.0;"></polygon><text fill="#000000" font-family="sans-serif" font-size="13" lengthAdjust="spacing" textLength="84" x="865.25" y="28.3969">Profile stored</text></g><!--SRC=[VLHDRzim3BtxL-YOOjiV28e2MxQTkY9esjqPcOw9ALAgZxH5iVy-IPOSoNQMKqHQZu_laU82Z67F1ZNxQ9Z_VP9mn3NRMKtoC4Jm22JgqCdVUbMwdKHx9V717VUe9mcjEXAu9MwTdg1hF92ng5Stmrce0ybyqFZYqDXjAlU8N9rHl-SqrmWMjmEw3_vj6XuRsg4-NreoLcaCFNu72ojd0hrmJ2Xd4DHwd9tY1E8NjWGRZIrAwuzcnI__C_DqqQ1iDqfsf8zWISaVGQWvVW-o5NWV-wgq_CocEXR0kTS1jBfND1ewseF1iLKunqxdB0veOw966ZufPCfY9ilMB0MAcYcII-v9rOuAnQCSTTJy8H4KlFTktmw9kpHVRoVKX99F9kF5UMCw6i1CdNEdTjdvhyxsmQtXLkROW-dp4ArcejVGNdJgtiUlIPxSE80Nvw9OxNOEzKqfWI1JQnBs0fzUrK_W_a9DRg0TT-_BNHxPDNjC2z6aYC-DBeSwlYuBxZAl03HZgeHupkb4iu2AAG_Z9upnOdPPd8iv6p-sZEGobzzfSLYn8ik4YdrYSTtcZE9-CECuHsCw9vQ4YO_1k3HCfnMvmYxwcFfQP1LNYqM_wQf8kSWrWJRn3M9fN_vdMlh4ozcffFeohxnWrypB-VZy1Uykglq3]--></g></svg>